<svg width="142" height="78" fill="none" xmlns="http://www.w3.org/2000/svg"><path d="M8.994 45.218c1.043-.279 2.063-1.111 2.576-1.746 1.077-1.313 1.263-2.357 1.014-3.284-.489-1.826-2.41-1.808-2.643-2.677-.271-1.015 1.568-2.843 3.426-4.024.287-.201.252-.565-.738-1.48-.902-.814-1.646-.925-2.4-.723-.492.132-1.32.633-1.928 1.262-1.131 1.11-1.735 2.453-1.409 3.67.412 1.535 2.52 1.871 2.808 2.943.248.928-.807 2.67-3.44 4.432-.209.149-.22.338-.034.568.193.259.481.523.893.785.56.348 1.093.484 1.875.274zm13.627-6.415c.55.194 1.141.315 1.692.168 1.535-.412 2.542-1.986 2.99-3.1.132-.315.115-.496.084-.612a2.035 2.035 0 00-.175-.42c-.044-.05-.131-.026-.174.047-.544.984-1.267 1.644-2.098 2.022-.276-1.727.854-5.043 1.11-6.291.263-1.22-.122-1.614-1.415-1.454-.603.069-1.582.238-1.93.331-.232.062-.346.217-.426.611-1.21 5.573-3.006 7.794-4.16 8.352.27-1.657 1.19-3.208 2.096-6.432.35-1.243.28-2.435-.923-2.517-.663-.04-1.803.11-2.208.219-.377.1-.504.321-.606.752-.094.46-.75 2.189-1.944 5.149-.726 1.81-.945 3.08-.704 3.978.194.724.61 1.234 1.642 1.61.82.277 1.433.361 2.012.206 1.246-.334 2.52-2.073 3.612-4.602.03.924.427 1.594 1.525 1.983zm3.795 8.611c1.176-.595 1.902-1.13 3.025-4.01.719-1.838 1.709-4.868 2.582-7.866.604.863 1.395 1.148 2.38.884 1.623-.434 3.718-2.238 4.772-4.446.52-1.071.873-2.19.972-3.211 1.817-.984 3.449-2.198 4.185-3.855l.077-.176c.098-.212.06-.357-.103-.5l-.081-.071c-.118-.093-.213-.099-.383.195l-.084.147c-.828 1.433-2.15 2.409-3.593 3.168-.033-.24-.066-.48-.128-.711-.249-.927-.725-1.545-1.305-1.855-.58-.311-1.187-.49-1.97-.28-.753.202-1.734.713-2.64 1.39-.14-.521-.63-.731-1.272-.808-.752-.14-1.028-.128-1.202-.081-.377.1-.595.563-2.483 6.38-1.316 4.017-2.72 9.207-4.276 15.339-.177.73.146.893.58.776.232-.062.536-.205.947-.409zm6.91-16.635c1.004-2.63 3.274-4.356 4.618-4.902.187.695-.07 1.82-.647 3.03-1.727.743-3.027 1.34-3.971 1.872zm-.6 2.863c-.341-1.275 1.212-1.971 3.624-3.052-.887 1.325-2.074 2.574-3.472 3.384a1.287 1.287 0 01-.152-.332zm13.812.057c2.898-.776 5.974-4.365 7.01-8.028l.049-.168c.061-.234.052-.387-.206-.535l-.11-.064c-.11-.064-.16-.02-.293.296l-.056.14c-1.341 3.34-3.711 5.621-6.03 6.242a4.124 4.124 0 01-1.263.153 4.684 4.684 0 01-.23-1.088c1.787-1.1 3.273-2.275 4.167-3.228 1.544-1.656 1.912-2.718 1.725-3.413-.178-.667-.695-1.087-1.48-1.467-1.137-1-1.816-1.098-2.598-.888-1.97.528-4.345 3.028-5.393 5.607-.795 2.015-.727 3.89-.029 4.76.707.897 1.824 1.592 2.81 1.793.563.13 1.173.09 1.927-.112zm1.8-7.191c-.548.737-1.645 1.745-2.78 2.608.45-2.263 2.047-4.648 3.727-5.564.283.825.08 1.687-.947 2.956zm6.705 4.726c.464-.125.59-.345 1.379-2.389 2.113-5.442 4.189-8.824 6.385-11.525.277-.354.434-.582.356-.872-.078-.29-.289-.73-.52-.668-.146.04-.368.254-.812.683-1.374 1.363-2.582 2.649-3.81 4.438-.024-1.36-.393-1.696-.861-1.82-.431-.101-1.144-.096-1.674.014-.355.065-.484.161-.525.358-.182.826-.895 3.035-2.026 5.885-.894 2.227-1.244 3.47-.98 4.456.17.637.562.936 1.352 1.221.754.264 1.301.335 1.736.219z" fill="#0D6EF0"/><path d="M53.296 73.16c-.395 0-.763-.064-1.104-.192a3.02 3.02 0 01-.88-.56 2.58 2.58 0 01-.576-.816 2.547 2.547 0 01-.208-1.024c0-.363.085-.699.256-1.008.17-.31.41-.576.72-.8a3.4 3.4 0 011.104-.512 4.885 4.885 0 011.408-.192c.427 0 .859.037 1.296.112.437.074.827.181 1.168.32v-.752c0-.736-.208-1.318-.624-1.744-.416-.438-.992-.656-1.728-.656-.427 0-.864.085-1.312.256-.448.17-.901.416-1.36.736l-.384-.72c1.077-.726 2.123-1.088 3.136-1.088 1.045 0 1.867.293 2.464.88.597.586.896 1.397.896 2.432v3.76c0 .298.133.448.4.448V73c-.181.032-.32.048-.416.048-.277 0-.496-.07-.656-.208-.15-.139-.23-.33-.24-.576l-.032-.656c-.384.501-.87.885-1.456 1.152-.576.266-1.2.4-1.872.4zm.256-.832c.565 0 1.083-.107 1.552-.32.48-.214.843-.496 1.088-.848a.913.913 0 00.208-.304.784.784 0 00.08-.32v-1.36a6.61 6.61 0 00-2.32-.432c-.768 0-1.392.16-1.872.48-.48.32-.72.741-.72 1.264 0 .256.048.496.144.72.107.224.245.421.416.592.181.16.395.288.64.384.245.096.507.144.784.144zm9.135.832c-.65 0-1.286-.107-1.904-.32a4.577 4.577 0 01-1.6-.928l.496-.736c.47.384.944.672 1.424.864.49.192 1.013.288 1.568.288.672 0 1.205-.134 1.6-.4.405-.278.608-.667.608-1.168 0-.235-.054-.427-.16-.576a1.332 1.332 0 00-.48-.416 3.247 3.247 0 00-.784-.304 15.41 15.41 0 00-1.088-.288 16.1 16.1 0 01-1.248-.352 4.006 4.006 0 01-.88-.4 1.553 1.553 0 01-.512-.544c-.107-.224-.16-.502-.16-.832 0-.416.08-.784.24-1.104.17-.32.394-.582.672-.784a3.06 3.06 0 01.992-.48c.384-.107.79-.16 1.216-.16.64 0 1.221.106 1.744.32.522.202.944.474 1.264.816l-.528.64c-.31-.32-.688-.56-1.136-.72a3.973 3.973 0 00-1.376-.24c-.288 0-.555.032-.8.096a1.895 1.895 0 00-.656.272 1.387 1.387 0 00-.432.496c-.107.192-.16.421-.16.688 0 .224.037.405.112.544.074.138.197.261.368.368.17.096.384.186.64.272.266.074.586.154.96.24.533.128 1.002.256 1.408.384a4.25 4.25 0 011.008.448c.277.17.485.378.624.624.138.245.208.544.208.896 0 .768-.294 1.376-.88 1.824-.587.448-1.376.672-2.368.672zm7.797 0c-.651 0-1.286-.107-1.904-.32a4.578 4.578 0 01-1.6-.928l.496-.736c.469.384.944.672 1.424.864.49.192 1.013.288 1.568.288.672 0 1.205-.134 1.6-.4.405-.278.608-.667.608-1.168 0-.235-.054-.427-.16-.576a1.33 1.33 0 00-.48-.416 3.246 3.246 0 00-.784-.304c-.31-.096-.672-.192-1.088-.288a16.1 16.1 0 01-1.248-.352 4.008 4.008 0 01-.88-.4 1.554 1.554 0 01-.512-.544c-.107-.224-.16-.502-.16-.832 0-.416.08-.784.24-1.104.17-.32.394-.582.672-.784a3.06 3.06 0 01.992-.48c.384-.107.789-.16 1.216-.16.64 0 1.221.106 1.744.32.522.202.944.474 1.264.816l-.528.64c-.31-.32-.688-.56-1.136-.72a3.973 3.973 0 00-1.376-.24c-.288 0-.555.032-.8.096a1.896 1.896 0 00-.656.272 1.389 1.389 0 00-.432.496c-.107.192-.16.421-.16.688 0 .224.037.405.112.544.074.138.197.261.368.368.17.096.384.186.64.272.266.074.586.154.96.24.533.128 1.002.256 1.408.384.405.128.741.277 1.008.448.277.17.485.378.624.624.138.245.208.544.208.896 0 .768-.294 1.376-.88 1.824-.587.448-1.376.672-2.368.672zm8.629 0a4.146 4.146 0 01-1.68-.336 4.295 4.295 0 01-1.313-.944 4.606 4.606 0 01-.88-1.392 4.606 4.606 0 01-.303-1.68c0-.587.1-1.136.303-1.648.214-.523.502-.976.865-1.36a4.03 4.03 0 011.328-.928 3.945 3.945 0 011.663-.352c.608 0 1.163.117 1.664.352.512.224.95.533 1.313.928a4.393 4.393 0 011.152 2.992v.256a.643.643 0 01-.016.176h-7.136c.032.448.133.864.303 1.248.182.373.411.698.688.976.278.277.593.496.945.656a2.997 2.997 0 001.951.112c.267-.075.513-.176.737-.304.224-.128.426-.283.608-.464.18-.192.32-.4.415-.624l.945.256c-.129.31-.31.592-.544.848a4.154 4.154 0 01-.816.656c-.31.181-.651.32-1.025.416-.373.106-.762.16-1.168.16zm3.072-4.768a3.202 3.202 0 00-.32-1.216 3.108 3.108 0 00-.672-.96 2.857 2.857 0 00-.944-.624 2.877 2.877 0 00-1.136-.224 3.041 3.041 0 00-2.112.848 3.255 3.255 0 00-.656.96 3.76 3.76 0 00-.288 1.216h6.127zM97.302 73h-1.088v-4.656c0-.97-.154-1.686-.464-2.144-.31-.459-.768-.688-1.376-.688-.32 0-.624.058-.912.176a2.937 2.937 0 00-.784.496c-.234.213-.442.47-.624.768-.181.288-.32.608-.416.96V73h-1.088v-4.656c0-.992-.15-1.712-.448-2.16-.298-.448-.757-.672-1.376-.672-.63 0-1.19.218-1.68.656-.49.437-.843 1.013-1.056 1.728V73h-1.088v-8.336h.992v1.888c.342-.64.79-1.136 1.344-1.488a3.292 3.292 0 011.84-.544c.704 0 1.264.197 1.68.592.427.394.688.912.784 1.552.779-1.43 1.85-2.144 3.216-2.144.47 0 .864.085 1.184.256.33.17.592.416.784.736.203.31.347.688.432 1.136.096.437.144.928.144 1.472V73zm6.383.16a3.499 3.499 0 01-1.824-.496 3.683 3.683 0 01-1.28-1.28V73h-.976V61.32h1.088v5.088a4.684 4.684 0 011.344-1.36c.523-.352 1.131-.528 1.824-.528.587 0 1.11.122 1.568.368.47.245.864.576 1.184.992.331.405.582.87.752 1.392.182.512.272 1.04.272 1.584 0 .586-.101 1.141-.304 1.664-.202.522-.48.981-.832 1.376a4.083 4.083 0 01-1.264.928c-.48.224-.997.336-1.552.336zm-.256-.96c.459 0 .875-.09 1.248-.272.384-.192.71-.443.976-.752.278-.32.491-.678.64-1.072.16-.406.24-.822.24-1.248 0-.438-.074-.859-.224-1.264a3.201 3.201 0 00-.608-1.072c-.256-.32-.57-.57-.944-.752a2.52 2.52 0 00-1.2-.288c-.33 0-.64.058-.928.176a2.967 2.967 0 00-.8.448 3.573 3.573 0 00-.656.672 3.962 3.962 0 00-.48.784v2.592c.043.288.155.56.336.816.192.245.416.458.672.64.267.181.55.325.848.432.31.106.603.16.88.16zm6.099-10.88h1.088v9.792c0 .31.086.554.256.736.171.17.411.256.72.256a2.731 2.731 0 00.864-.176l.192.88a3.572 3.572 0 01-.752.208c-.288.053-.538.08-.752.08-.501 0-.896-.139-1.184-.416-.288-.288-.432-.688-.432-1.2V61.32zm4.62 14.24c.085.01.165.016.24.016.085.01.165.016.24.016.192 0 .341-.027.448-.08.117-.054.229-.17.336-.352a5.33 5.33 0 00.352-.784c.138-.342.33-.8.576-1.376l-3.632-8.336h1.12l3.088 7.328 2.864-7.328h1.04l-4.32 10.752c-.118.31-.315.576-.592.8-.267.234-.635.352-1.104.352-.107 0-.208-.006-.304-.016-.096 0-.214-.01-.352-.032v-.96z" fill="#0547A0"/><path d="M47.38 57c.5 0 .72-.22.72-.72v-2.34c0-.5-.22-.72-.72-.72h-5.52V51.5h3.9c.5 0 .72-.22.72-.72v-2.14c0-.5-.22-.72-.72-.72h-3.9v-1.54h5.52c.5 0 .72-.22.72-.72v-2.34c0-.5-.22-.72-.72-.72H38.1c-.5 0-.72.22-.72.72v12.96c0 .5.22.72.72.72h9.28zm8.306-10.2c.1-.24.22-.34.38-.34h.5c.16 0 .28.1.38.34l.94 3.04h-3.14l.94-3.04zm-1.14 9.48v-2.8h3.54v2.8c0 .5.24.72.78.72h3.02c.5 0 .72-.22.72-.72V51c0-.8-.24-1.8-.78-3.2l-1.74-4.54c-.16-.46-.48-.66-1-.66h-5.38c-.54 0-.86.2-1.02.66l-1.74 4.54c-.54 1.4-.78 2.4-.78 3.2v5.28c0 .5.22.72.72.72h2.94c.5 0 .72-.22.72-.72zm17.21.72c2.58 0 4.14-1.24 4.14-3.52v-2.1c0-2.24-1.24-3.04-3.12-3.32l-2.98-.4c-.34-.04-.54-.28-.54-.64s.2-.6.54-.6h4.66c.5 0 .72-.22.72-.72v-2.38c0-.5-.22-.72-.72-.72h-5.6c-2.6 0-4.14 1.24-4.14 3.52v2.1c0 2.24 1.22 3.04 3.1 3.32l3 .42c.34.04.52.22.52.68 0 .32-.18.58-.52.58h-5.38c-.5 0-.72.22-.72.72v2.34c0 .5.22.72.72.72h6.32zm13.432 0c.5 0 .72-.22.72-.72v-2.54l3.04-4.12c.6-.82.76-1.22.76-2.46v-3.84c0-.5-.22-.72-.72-.72h-2.98c-.5 0-.72.22-.72.72v3.28c0 .28 0 .56-.18.84l-.92 1.44c-.14.24-.26.34-.48.34h-.2c-.22 0-.34-.1-.48-.34l-.92-1.44c-.18-.28-.18-.56-.18-.84v-3.28c0-.5-.22-.72-.72-.72h-3.08c-.5 0-.72.22-.72.72v3.84c0 1.24.14 1.64.76 2.46l3.06 4.1v2.56c0 .5.2.72.72.72h3.24z" fill="#0F2459"/></svg>