<svg width="87" height="63" fill="none" xmlns="http://www.w3.org/2000/svg"><path d="M2.96 41.48c.96-.16 1.6-.56 2.6-1.72 2.24-2.6 7.68-10.84 11.08-16.24 1.96-.2 4.32-.44 6.68-.64.44-.04.6-.2.6-.36 0-.24-.36-.52-.88-.84-.36-.24-.72-.48-3.36-.48h-1.6c1.2-1.96 2.24-3.52 3.16-4.76.24.48.44.72.68.8.44.16.76.08 1.04.12.52.12 1.32 0 1.72-.6.96-1.76 1.72-4.12 1.96-5.88.12-.76-.04-1.48-.56-1.8-.56-.36-1.72-.68-2.6-.68-.52 0-1.04.2-1.84.96-2.76 2.68-5.8 6.48-9.72 12.12-1.4.12-2.56.24-3.4.4-.32.08-.44.16-.44.28 0 .12.4.88.96 1.44.36.36.52.48 1.08.52-.88 1.32-1.84 2.76-2.84 4.32-2.68 4.12-5.6 9.6-6.56 12.12-.32.88-.08 1.28.56 1.28.56 0 1.08-.24 1.68-.36zm15.91-4.92c.44 0 .8-.32 2.4-2.72C25.11 28 29.91 23.4 33.95 20.88c.12-.08.2-.16.2-.24 0-.08-.24-.24-.36-.36-.28-.24-.36-.44-.68-.44-.32 0-.88.2-1.76.64-1.8.84-3.84 2.24-6.12 4.32.16-.56.24-1.08.24-1.52 0-.56-.16-1.04-.64-1.32-.56-.32-1.04-.36-1.72-.6-.24-.08-.56-.08-.68.2-.6 1.16-3.2 4.84-4.76 6.88-2 2.6-2.76 4.48-2.76 5.64 0 1.32 1.04 1.68 2.24 2 1.12.32 1.44.48 1.72.48zm15.408.8c4.04 0 9.12-3.68 11.88-8.28l.12-.2c.16-.28.2-.48-.08-.76l-.12-.12c-.12-.12-.2-.08-.48.28l-.12.16c-2.8 3.72-7.16 6.16-10.16 6.16-.52 0-.96-.08-1.32-.28-.16-.4-.12-.92 0-1.56 2.84-.96 5-1.92 6.4-2.8 2.68-1.72 3.4-2.88 3.4-4.08 0-.84-.6-1.76-1.36-2.36-.36-.52-.68-.72-1.28-1.12-.6-.4-1.24-.68-2.04-.68-2.6 0-6.24 2.28-8.32 5-2.92 3.84-2.4 6.4-1 8.04 1.72 2.04 2.96 2.6 4.48 2.6zm5-8.96c-1.08.8-2.72 1.64-4.52 2.4 1.4-2.76 4.36-5.72 6.56-6.2.4 1.4-.56 2.72-2.04 3.8zm9.885 8.6c2.56 0 5.6-1.24 7.8-3.08.6-.56.92-1.08 1.2-2 .08-.32-.04-.48-.32-.28-3.28 2.12-5.48 2.76-7.48 2.76-.6 0-1.2-.08-1.68-.24-.04-.48 0-.96.08-1.48 2.68-.8 5-1.8 6.48-2.72 2.56-1.6 3.4-2.84 3.4-3.8 0-.92-.52-1.64-1.4-2.4-1.12-1.68-1.96-2.04-3.04-2.04-2.72 0-6.64 2.4-8.88 5.36-1.72 2.32-2.28 4.76-1.68 6.12.6 1.4 1.8 2.68 3 3.28.68.36 1.48.52 2.52.52zm4.8-8.64c-.96.76-2.72 1.68-4.48 2.4 1.36-2.76 4.24-5.28 6.72-5.88.08 1.16-.48 2.2-2.24 3.48z" fill="#F3BC10"/><path d="M11.546 58.2a7.25 7.25 0 01-2.38-.4 5.72 5.72 0 01-2-1.16l.62-.92c.587.48 1.18.84 1.78 1.08a5.33 5.33 0 001.96.36c.84 0 1.507-.167 2-.5.507-.347.76-.833.76-1.46 0-.293-.067-.533-.2-.72a1.664 1.664 0 00-.6-.52 4.063 4.063 0 00-.98-.38c-.387-.12-.84-.24-1.36-.36-.6-.147-1.12-.293-1.56-.44a5.004 5.004 0 01-1.1-.5 1.94 1.94 0 01-.64-.68c-.133-.28-.2-.627-.2-1.04 0-.52.1-.98.3-1.38.213-.4.493-.727.84-.98.36-.267.773-.467 1.24-.6.48-.133.987-.2 1.52-.2.8 0 1.527.133 2.18.4.653.253 1.18.593 1.58 1.02l-.66.8c-.387-.4-.86-.7-1.42-.9-.547-.2-1.12-.3-1.72-.3-.36 0-.693.04-1 .12-.307.067-.58.18-.82.34-.227.16-.407.367-.54.62-.133.24-.2.527-.2.86 0 .28.047.507.14.68.093.173.247.327.46.46.213.12.48.233.8.34.333.093.733.193 1.2.3.667.16 1.253.32 1.76.48.507.16.927.347 1.26.56.347.213.607.473.78.78.173.307.26.68.26 1.12 0 .96-.367 1.72-1.1 2.28-.733.56-1.72.84-2.96.84zm15.046-.2h-1.36v-5.82c0-1.187-.207-2.073-.62-2.66-.4-.587-.993-.88-1.78-.88-.387 0-.773.08-1.16.24a4.085 4.085 0 00-1.06.62 4.55 4.55 0 00-.88.94c-.24.36-.42.753-.54 1.18V58h-1.36V43.4h1.36v6.54a4.725 4.725 0 011.72-1.86 4.444 4.444 0 012.38-.68c.6 0 1.107.113 1.52.34.413.213.753.52 1.02.92.267.387.46.86.58 1.42.12.547.18 1.153.18 1.82V58zm2.9 0V47.58h1.36V58h-1.36zm0-12.6v-2h1.36v2h-1.36zm9.676 12.8c-.88 0-1.66-.22-2.34-.66a5.473 5.473 0 01-1.62-1.7v6.42h-1.36V47.58h1.22v2.02c.426-.653.98-1.18 1.66-1.58.68-.413 1.42-.62 2.22-.62.72 0 1.38.153 1.98.46.6.293 1.12.693 1.56 1.2.44.493.78 1.067 1.02 1.72.253.653.38 1.327.38 2.02 0 .733-.114 1.427-.34 2.08a5.212 5.212 0 01-.98 1.72 4.644 4.644 0 01-1.5 1.18c-.574.28-1.207.42-1.9.42zm-.38-1.2c.56 0 1.066-.12 1.52-.36a3.72 3.72 0 001.18-.94c.333-.4.586-.847.76-1.34.173-.507.26-1.027.26-1.56a4.418 4.418 0 00-1.12-2.94 3.86 3.86 0 00-1.24-.92 3.432 3.432 0 00-1.52-.34c-.347 0-.714.073-1.1.22-.374.133-.727.32-1.06.56-.32.227-.6.5-.84.82a2.195 2.195 0 00-.42.98v3.2c.16.373.36.72.6 1.04.253.32.533.6.84.84.32.227.66.407 1.02.54.36.133.733.2 1.12.2zm12.723 1.2c-.88 0-1.66-.22-2.34-.66a5.473 5.473 0 01-1.62-1.7v6.42h-1.36V47.58h1.22v2.02c.427-.653.98-1.18 1.66-1.58.68-.413 1.42-.62 2.22-.62.72 0 1.38.153 1.98.46.6.293 1.12.693 1.56 1.2.44.493.78 1.067 1.02 1.72.254.653.38 1.327.38 2.02a6.3 6.3 0 01-.34 2.08 5.21 5.21 0 01-.98 1.72 4.641 4.641 0 01-1.5 1.18c-.573.28-1.206.42-1.9.42zm-.38-1.2c.56 0 1.067-.12 1.52-.36.467-.24.86-.553 1.18-.94.334-.4.587-.847.76-1.34.174-.507.26-1.027.26-1.56a4.416 4.416 0 00-1.12-2.94 3.86 3.86 0 00-1.24-.92 3.432 3.432 0 00-1.52-.34c-.346 0-.713.073-1.1.22a4.26 4.26 0 00-1.06.56c-.32.227-.6.5-.84.82a2.195 2.195 0 00-.42.98v3.2c.16.373.36.72.6 1.04.254.32.534.6.84.84.32.227.66.407 1.02.54.36.133.734.2 1.12.2zm7.404 1V47.58h1.36V58h-1.36zm0-12.6v-2h1.36v2h-1.36zM71.651 58h-1.36v-5.82c0-1.24-.187-2.14-.56-2.7-.36-.56-.92-.84-1.68-.84-.4 0-.8.073-1.2.22a4.2 4.2 0 00-1.12.62 4.772 4.772 0 00-.9.96 3.61 3.61 0 00-.58 1.18V58h-1.36V47.58h1.24v2.36a4.917 4.917 0 011.82-1.84 5.07 5.07 0 012.6-.7c.573 0 1.06.107 1.46.32.4.213.72.513.96.9s.413.86.52 1.42c.106.56.16 1.18.16 1.86V58zm7.08.14c-.72 0-1.38-.147-1.98-.44a5.397 5.397 0 01-1.54-1.2 5.554 5.554 0 01-1-1.7c-.24-.64-.36-1.3-.36-1.98 0-.72.113-1.407.34-2.06a5.452 5.452 0 011-1.74 4.866 4.866 0 011.52-1.18c.6-.293 1.26-.44 1.98-.44.893 0 1.666.227 2.32.68.653.44 1.213 1 1.68 1.68v-2.18h1.22v10.46c0 .72-.14 1.353-.42 1.9a3.928 3.928 0 01-1.1 1.4 4.566 4.566 0 01-1.62.84 6.697 6.697 0 01-1.96.28c-1.2 0-2.167-.213-2.9-.64a5.112 5.112 0 01-1.78-1.72l.84-.66c.413.667.96 1.153 1.64 1.46.68.32 1.413.48 2.2.48a4.65 4.65 0 001.44-.22c.453-.133.846-.34 1.18-.62.346-.267.62-.613.82-1.04.2-.413.3-.9.3-1.46v-2.06a4.343 4.343 0 01-1.64 1.58c-.694.387-1.42.58-2.18.58zm.38-1.14c.4 0 .793-.073 1.18-.22a3.947 3.947 0 001.84-1.42 2.56 2.56 0 00.42-.94V51.2a4.168 4.168 0 00-2.5-2.4c-.36-.133-.727-.2-1.1-.2-.587 0-1.114.127-1.58.38-.454.24-.84.56-1.16.96-.32.4-.567.853-.74 1.36-.16.507-.24 1.02-.24 1.54a4.416 4.416 0 001.12 2.94c.36.373.773.673 1.24.9.466.213.973.32 1.52.32z" fill="#EBAE16"/></svg>