<svg width="119" height="71" fill="none" xmlns="http://www.w3.org/2000/svg"><path d="M10.075 59.583c.492-.132 1.475-.52 2.23-1.064.806-.588 1.394-1.057 2.015-2.683 1.887-5.009 4.737-8.63 6.739-13.794l.056-.14c.077-.175.057-.48-.184-.57l-.14-.057c-.102-.035-.181.018-.293.296l-.056.14c-1.096 2.747-2.695 5.008-4.184 7.332.723-2.399 1.316-4.359 1.548-6.16.122-.934.048-1.442-.694-1.895a6.085 6.085 0 01-.84-.583c.362-.159.715-.347 1.076-.505.303-.144.446-.306.345-.683-.1-.377-.579-1.118-.883-1.44-.26-.273-.5-.363-1.689-.045-4.636 1.242-7.232 4.422-8.28 7.002-.824 2.022-.43 3.842.495 4.743 1.132 1.095 1.978 1.24 2.819 1.015.84-.225 1.585-.921 2.26-1.879-1.103 3.65-2.233 8.239-2.573 10.1-.127.687-.057.947.233.87zm-.277-11.231a1.994 1.994 0 01-.631.076c.491-2.337 2.227-5.132 5.974-7.378-.93 1.864-2.242 6.47-5.343 7.302zm18.766-3.476c.55.195 1.14.316 1.691.168 2.319-.621 4.184-4.786 4.748-6.738l.048-.168c.07-.205.052-.387-.205-.535l-.11-.064c-.11-.064-.161-.02-.294.296l-.056.14c-1.32 3.303-2.478 4.545-3.519 4.949-.247-1.736.87-4.985 1.125-6.234.263-1.22-.122-1.613-1.414-1.453-.603.068-1.583.237-1.93.33-.232.063-.346.217-.427.611-1.209 5.573-3.005 7.794-4.16 8.352.27-1.657 1.19-3.208 2.097-6.432.35-1.243.28-2.435-.923-2.517-.663-.04-1.803.11-2.209.22-.376.1-.504.32-.605.752-.095.46-.75 2.188-1.944 5.148-.727 1.81-.945 3.08-.705 3.978.195.724.61 1.234 1.643 1.61.82.277 1.432.361 2.012.206 1.246-.334 2.52-2.073 3.612-4.602.03.924.427 1.594 1.525 1.983zm9.765-1.747c.718-.565 1.52-1.743 2.344-3.423.181 1.722.961 2.662 2.265 2.313 1.942-.52 3.48-2.548 3.94-3.727.133-.315.115-.497.084-.613a2.048 2.048 0 00-.174-.419c-.044-.05-.131-.027-.174.047a6.296 6.296 0 01-2.022 2.188c-.069-1.877.399-3.959 1.185-5.66.14-.286.063-.576-.063-.698-.508-.391-1.719-.968-2.384-1.131a1.157 1.157 0 00-.871.11c-.635-.514-1.543-.892-2.285-.88-.677.027-1.183.224-1.766.598-1.829 1.173-3.426 3.092-4.388 5.182-1.166 2.487-.948 4.23.014 5.152.503.487.951.77 1.616.934 1.395.682 2.04.54 2.679.027zm-.882-1.782c-.648-2.187 1.38-6.209 4.346-8.122-.32.893-.656 2.07-.914 3.196-.901 2.198-2.124 3.892-3.432 4.926zm14.092-.422c1.739-.466 3.593-2.702 5.221-8.449l.048-.168c.062-.234.052-.387-.205-.535l-.11-.064c-.11-.064-.16-.019-.294.296l-.056.14c-1.767 4.417-3.266 6.123-4.253 6.264-.245-.68-.117-2.174.979-5.387 4.036-11.828 4.438-13.457 4.12-14.646-.249-.927-1.206-1.136-2.25-1.323-.291-.046-.42.051-.511.293-1.476 3.998-3.245 9.1-5.764 16.856-.595 1.837-.774 3.717-.48 4.818.257.956.766 1.348 1.404 1.643.704.308 1.427.456 2.151.262zm8.387-17.341c.184.106.794.066 1.084-.011.609-.163 1.028-.338 1.435-.789.214-.243.604-.876 1.084-1.75.239-.499.182-.825-.114-1.118-.385-.394-1.117-.695-1.92-.79-.16-.02-.21.025-.258.193-.297.98-.894 2.693-1.385 3.757-.12.249-.073.423.074.508zm-.83 14.633c1.564-.419 2.682-2.737 3.14-4.04.133-.316.116-.497.085-.613a2.04 2.04 0 00-.175-.42c-.044-.05-.131-.026-.174.047-.748 1.381-1.71 2.54-2.765 3.009-.153-1.73 1.265-5.247 2.167-7.445.628-1.597.279-2.435-.546-2.618-.431-.102-1.347-.043-2.208-.123-.407-.015-.47.096-.648.826-.196.891-.812 2.765-1.839 5.307-1.104 2.718-1.19 4.139-.315 5.085.275.33.753.606 1.346.85.586.216 1.294.306 1.931.135zm8.505-2.496c1.825-.49 3.28-2.711 3.775-3.993.133-.315.115-.497.084-.613a2.037 2.037 0 00-.174-.42c-.045-.05-.132-.026-.174.047-.83 1.31-2.05 2.32-3.035 2.584a2.645 2.645 0 01-.508.074c.362-2.24 1.741-6.368 2.77-9.252 1.017-.49 1.94-.986 2.59-1.346.432-.24.575-.403.66-.55.09-.242.055-.605.016-.75-.039-.145-.133-.15-.51-.05-.485.162-1.202.385-2.077.712.63-1.939.967-3.116.78-3.811-.163-.609-.706-.898-1.495-1.06-.788-.16-1.357-.195-1.588-.133-.203.054-.251.223-.455 1.085-.32 1.359-1.084 3.49-1.878 5.627-.817.313-1.605.617-2.306.898-.361.159-.49.256-.436.458.054.203.297.76.475.96.193.259.609.303 1.376.035-.565 1.487-1.073 2.835-1.378 3.786-.816 2.517-.578 4.1.056 4.612 1.078.892 2.272 1.41 3.431 1.1zm4.824 7.87c3.274-.878 6.288-4.698 8.507-10.79a70.818 70.818 0 014.417-1.712c.398-.137.715-.346.819-.654.104-.307.218-.462.293-.762.027-.131-.112-.187-.344-.125a51.424 51.424 0 00-4.575 1.474c1.073-3.3 2.008-6.532 2.475-8.614.239-.964-.264-1.45-1.335-1.505-.597-.027-1.057-.12-1.347-.043-.29.077-.388.29-.827 1.433-1.374 3.567-2.585 5.537-3.68 6.67.17-1.226.52-2.811.703-4.102.32-2.167-.224-2.922-1.61-3.11-.547-.07-1.005-.041-1.352.052-.232.062-.346.217-.319.551.036.83-.203 2.602-.996 5.206-.986 3.276-.956 4.2-.169 4.703.861.546 1.532.615 2.082.468.348-.094.91-.43 1.582-1.17.306-.361 1.111-1.416 1.979-3.046a89.23 89.23 0 01-1.292 4.105c-3.488 1.587-6.78 3.556-8.285 5.822-1.235 1.884-.798 3.63.206 4.48.731.642 1.85.995 3.068.669zm-.758-4.798c.953-1.311 2.648-2.635 4.854-3.91-1.78 4.142-3.701 6.241-5.767 6.764-.304-.789.159-1.844.913-2.854z" fill="#C6232D"/><path d="M7.182 26H6.23v-4.074c0-.83-.145-1.451-.434-1.862-.28-.41-.695-.616-1.246-.616-.27 0-.541.056-.812.168a2.855 2.855 0 00-.742.434 3.18 3.18 0 00-.616.658 2.889 2.889 0 00-.378.826V26H1.05V15.78h.952v4.578c.29-.55.69-.985 1.204-1.302a3.11 3.11 0 011.666-.476c.42 0 .775.08 1.064.238.29.15.527.364.714.644.187.27.322.602.406.994.084.383.126.807.126 1.274V26zm2.03 0v-7.294h.952V26h-.952zm0-8.82v-1.4h.952v1.4h-.952zm5.975 8.918c-.504 0-.966-.103-1.386-.308a3.78 3.78 0 01-1.078-.84 3.89 3.89 0 01-.7-1.19 3.916 3.916 0 01-.252-1.386c0-.504.08-.985.238-1.442.168-.467.401-.873.7-1.218.299-.345.653-.62 1.064-.826.42-.205.882-.308 1.386-.308.625 0 1.167.159 1.624.476.457.308.85.7 1.176 1.176v-1.526h.854v7.322c0 .504-.098.947-.294 1.33a2.748 2.748 0 01-.77.98 3.195 3.195 0 01-1.134.588 4.69 4.69 0 01-1.372.196c-.84 0-1.517-.15-2.03-.448a3.58 3.58 0 01-1.246-1.204l.588-.462c.29.467.672.807 1.148 1.022.476.224.99.336 1.54.336.355 0 .69-.051 1.008-.154.317-.093.593-.238.826-.434.243-.187.434-.43.574-.728.14-.29.21-.63.21-1.022v-1.442a3.04 3.04 0 01-1.148 1.106 3.09 3.09 0 01-1.526.406zm.266-.798c.28 0 .555-.051.826-.154a2.76 2.76 0 001.288-.994 1.79 1.79 0 00.294-.658V21.24a2.913 2.913 0 00-1.75-1.68 2.2 2.2 0 00-.77-.14c-.41 0-.78.089-1.106.266a2.568 2.568 0 00-.812.672c-.224.28-.397.597-.518.952a3.56 3.56 0 00-.168 1.078 3.094 3.094 0 00.784 2.058c.252.261.541.471.868.63.327.15.681.224 1.064.224zm11.594.7h-.952v-4.074c0-.83-.144-1.451-.434-1.862-.28-.41-.695-.616-1.246-.616-.27 0-.541.056-.812.168a2.857 2.857 0 00-.742.434 3.183 3.183 0 00-.616.658 2.889 2.889 0 00-.378.826V26h-.952V15.78h.952v4.578c.29-.55.69-.985 1.204-1.302a3.11 3.11 0 011.666-.476c.42 0 .775.08 1.064.238.29.15.528.364.714.644.187.27.322.602.406.994.084.383.126.807.126 1.274V26z" fill="#EF0E11"/><path d="M24.81 65c.375 0 .54-.165.54-.54v-5.28l.885 1.635c.18.345.405.48.795.48h.6c.39 0 .615-.135.795-.48l.885-1.635v5.28c0 .375.15.54.54.54h2.31c.375 0 .54-.165.54-.54v-9.72c0-.375-.165-.54-.54-.54h-2.43c-.315 0-.51.12-.69.45l-1.335 2.445c-.105.18-.15.255-.27.255H27.3c-.12 0-.165-.075-.27-.255l-1.35-2.445c-.18-.33-.375-.45-.69-.45h-2.415c-.375 0-.54.165-.54.54v9.72c0 .375.165.54.54.54h2.235zm13.87-7.65c.075-.18.164-.255.285-.255h.374c.12 0 .21.075.285.255l.706 2.28h-2.355l.704-2.28zm-.855 7.11v-2.1h2.654v2.1c0 .375.18.54.586.54h2.265c.375 0 .54-.165.54-.54V60.5c0-.6-.18-1.35-.585-2.4l-1.305-3.405c-.12-.345-.36-.495-.75-.495h-4.035c-.406 0-.645.15-.766.495L35.124 58.1c-.405 1.05-.585 1.8-.585 2.4v3.96c0 .375.166.54.54.54h2.206c.375 0 .54-.165.54-.54zM50.22 65c.375 0 .54-.165.54-.54v-7.365h2.205c.375 0 .54-.165.54-.54V54.74c0-.375-.165-.54-.54-.54h-7.92c-.375 0-.54.165-.54.54v1.815c0 .375.165.54.54.54h2.205v7.365c0 .375.165.54.54.54h2.43zm12.244 0c.375 0 .54-.165.54-.54v-1.755c0-.375-.165-.54-.54-.54h-4.14v-1.29h2.925c.375 0 .54-.165.54-.54V58.73c0-.375-.165-.54-.54-.54h-2.925v-1.155h4.14c.375 0 .54-.165.54-.54V54.74c0-.375-.165-.54-.54-.54h-6.96c-.375 0-.54.165-.54.54v9.72c0 .375.165.54.54.54h6.96zm5.704-8.1h1.125c.525 0 .66.3.66.705v.51c0 .405-.135.705-.66.705H68.17V56.9zm-.54 8.1c.375 0 .54-.165.54-.54v-2.94h2.1c.42 0 .57.195.57.645v2.295c0 .375.165.54.54.54h2.325c.375 0 .54-.165.54-.54v-3.18c0-1.26-.72-2.055-1.815-2.175.63-.27.84-.87.84-1.71v-.69c0-1.485-.705-2.505-2.955-2.505H65.32c-.375 0-.54.165-.54.54v9.72c0 .375.165.54.54.54h2.31zm8.598 0h6.39c.375 0 .54-.165.54-.54v-1.785c0-.375-.165-.54-.54-.54h-1.455v-5.04h1.455c.375 0 .54-.165.54-.54V54.74c0-.375-.165-.54-.54-.54h-6.39c-.375 0-.54.165-.54.54v1.815c0 .375.165.54.54.54h1.485v5.04h-1.485c-.375 0-.54.165-.54.54v1.785c0 .375.165.54.54.54zm12.697-7.65c.075-.18.165-.255.285-.255h.375c.12 0 .21.075.285.255l.705 2.28h-2.355l.705-2.28zm-.855 7.11v-2.1h2.655v2.1c0 .375.18.54.585.54h2.265c.375 0 .54-.165.54-.54V60.5c0-.6-.18-1.35-.585-2.4l-1.305-3.405c-.12-.345-.36-.495-.75-.495h-4.035c-.405 0-.645.15-.765.495L85.369 58.1c-.405 1.05-.585 1.8-.585 2.4v3.96c0 .375.165.54.54.54h2.205c.375 0 .54-.165.54-.54zm16.072.54c.375 0 .54-.165.54-.54v-4.725c0-.375-.165-.54-.54-.54h-2.175c-.375 0-.54.165-.54.54v2.43h-2.055V54.74c0-.375-.165-.54-.54-.54h-2.325c-.375 0-.54.165-.54.54v9.72c0 .375.165.54.54.54h7.635zm7.264 0c1.935 0 3.105-.93 3.105-2.64v-1.575c0-1.68-.93-2.28-2.34-2.49l-2.235-.3c-.255-.03-.405-.21-.405-.48s.15-.45.405-.45h3.495c.375 0 .54-.165.54-.54V54.74c0-.375-.165-.54-.54-.54h-4.2c-1.95 0-3.105.93-3.105 2.64v1.575c0 1.68.915 2.28 2.325 2.49l2.25.315c.255.03.39.165.39.51 0 .24-.135.435-.39.435h-4.035c-.375 0-.54.165-.54.54v1.755c0 .375.165.54.54.54h4.74z" fill="#85191E"/></svg>