<svg width="99" height="64" fill="none" xmlns="http://www.w3.org/2000/svg"><path d="M4.16 37.6c3.84 0 7.68-1.24 10.36-3.32 2.76-2.16 4-5.56 3-8.92-.4-1.24-1.04-2.36-2.2-3.12 3.96-.64 7.12-2.32 8-4.68 1.24-3.24-.36-6.56-6.04-6.56-1.8 0-3.48.52-4.84 1.24-.84.4-1.32.72-2 1.52-.44.56-1.12 1.72-1.48 2.52-.2.4-.12.64.36.4 2.36-1 4.12-1.32 5.68-1.32 2.68 0 3.28 1.12 2.96 2.24-.44 1.52-1.92 2.44-6.52 3.28-1.72.32-2.44.76-2.96 1.64-.52.88-.88 1.68-.88 2.08 0 .24.04.32.4.32 3.76.12 6.36.84 7.36 1.8-.88 2.56-5.88 6.16-14.4 6.2-.36 0-.56.64-.16 2.04.64 2.04 1.64 2.64 3.36 2.64zm22.846-.4c6.24 0 10.76-6.16 10.76-10.16 0-1.56-.68-2.92-2-4.36-1.08-1.16-2.12-1.88-3.72-2.24 2.72-2.84 6.12-5.28 11.04-7.52.92-.44.88-.84.16-1.08-1.24-.4-1.6-.84-2.56-.84-.64 0-1.68.24-2.68.64-6.76 2.64-12.2 6.76-15.84 12.36-2.16 3.36-2.48 7.72-.12 10.68.56.72 1.32 1.4 2.16 1.68.76.56 1.72.84 2.8.84zm.72-11.48c.4-.6.84-1.16 1.28-1.76 2.16-.8 3.88-.76 5-.12.28 1.12-.04 2.92-1.44 5.08-1.84 2.88-4.76 4.6-7.4 4.8-.52-1.56.08-4.48 2.56-8zM40.185 37.6c6.2 0 14.24-4.84 14.36-11.12 0-.84-.12-1.68-.48-2.44-.84-1.88-2.28-3.68-6.64-3.88.76-1.16 1.48-2.24 2.2-3.32 2.84 0 6-.16 8.08-.36 2.32-.2 3.52-1.2 4.44-2.76.4-.6.8-1.44.8-1.8 0-.16 0-.28-.4-.28-2.04 0-6.12.2-9.84.48.6-.92.08-1.16-.44-1.88-.2-.28-.4-.44-.64-.44-.28 0-.4.2-.96 1.04-.32.48-.68.96-1.04 1.48-.96.08-1.8.16-2.48.24-.44 0-.44.16-.44.36 0 .32.2 1.32.4 1.92.08.2.16.4.28.6-1.76 2.36-3.6 4.88-5.08 7-.52.68-.52 1.4-.28 1.88.16.36.48.88.76 1.2.24.24.4.24 1.24-.04 3.32-1.16 6.28-1.24 7.88-.8-.4 3.84-7.12 7.4-15.36 8.28-.44.04-.52 1.36.16 2.6.88 1.52 2 2.04 3.48 2.04z" fill="#0547A0"/><path d="M20.18 60c.5 0 .72-.22.72-.72v-9.82h2.94c.5 0 .72-.22.72-.72v-2.42c0-.5-.22-.72-.72-.72H13.28c-.5 0-.72.22-.72.72v2.42c0 .5.22.72.72.72h2.94v9.82c0 .5.22.72.72.72h3.24zm10.845-10.8h1.5c.7 0 .88.4.88.94v.68c0 .54-.18.94-.88.94h-1.5V49.2zm-.72 10.8c.5 0 .72-.22.72-.72v-3.92h2.8c.56 0 .76.26.76.86v3.06c0 .5.22.72.72.72h3.1c.5 0 .72-.22.72-.72v-4.24c0-1.68-.96-2.74-2.42-2.9.84-.36 1.12-1.16 1.12-2.28v-.92c0-1.98-.94-3.34-3.94-3.34h-6.66c-.5 0-.72.22-.72.72v12.96c0 .5.22.72.72.72h3.08zm11.463 0h8.52c.5 0 .72-.22.72-.72V56.9c0-.5-.22-.72-.72-.72h-1.94v-6.72h1.94c.5 0 .72-.22.72-.72v-2.42c0-.5-.22-.72-.72-.72h-8.52c-.5 0-.72.22-.72.72v2.42c0 .5.22.72.72.72h1.98v6.72h-1.98c-.5 0-.72.22-.72.72v2.38c0 .5.22.72.72.72zm16.93-10.2c.1-.24.22-.34.38-.34h.5c.16 0 .28.1.38.34l.94 3.04h-3.14l.94-3.04zm-1.14 9.48v-2.8h3.54v2.8c0 .5.24.72.78.72h3.02c.5 0 .72-.22.72-.72V54c0-.8-.24-1.8-.78-3.2l-1.74-4.54c-.16-.46-.48-.66-1-.66h-5.38c-.54 0-.86.2-1.02.66l-1.74 4.54c-.54 1.4-.78 2.4-.78 3.2v5.28c0 .5.22.72.72.72h2.94c.5 0 .72-.22.72-.72zm21.429.72c.5 0 .72-.22.72-.72v-6.3c0-.5-.22-.72-.72-.72h-2.9c-.5 0-.72.22-.72.72v3.24h-2.74v-9.9c0-.5-.22-.72-.72-.72h-3.1c-.5 0-.72.22-.72.72v12.96c0 .5.22.72.72.72h10.18z" fill="#0D6EF0"/><path d="M65.78 38.2c-.72 0-1.387-.147-2-.44a5.225 5.225 0 01-1.58-1.2 5.658 5.658 0 01-1.04-1.7 5.87 5.87 0 01-.36-2.04c0-.733.12-1.427.36-2.08.24-.667.567-1.247.98-1.74.427-.493.927-.88 1.5-1.16a4.233 4.233 0 011.92-.44c.88 0 1.66.233 2.34.7a5.127 5.127 0 011.6 1.66V23.4h1.36v12.84c0 .373.16.56.48.56V38c-.2.04-.36.06-.48.06-.32 0-.6-.1-.84-.3-.24-.213-.36-.467-.36-.76v-1.02a4.556 4.556 0 01-1.68 1.62c-.707.4-1.44.6-2.2.6zm.3-1.2c.333 0 .687-.067 1.06-.2a4.544 4.544 0 001.08-.54 3.78 3.78 0 00.84-.82c.24-.32.387-.66.44-1.02V31.2a3.437 3.437 0 00-.58-1c-.253-.32-.547-.6-.88-.84A3.923 3.923 0 0067 28.8c-.373-.133-.74-.2-1.1-.2-.56 0-1.067.12-1.52.36-.453.24-.847.56-1.18.96-.32.387-.567.833-.74 1.34a4.788 4.788 0 00-.26 1.56 4.416 4.416 0 001.12 2.94c.347.373.753.673 1.22.9.48.227.993.34 1.54.34zm10.481 1.2c-.493 0-.953-.08-1.38-.24a3.773 3.773 0 01-1.1-.7 3.221 3.221 0 01-.72-1.02c-.173-.4-.26-.827-.26-1.28 0-.453.107-.873.32-1.26.214-.387.514-.72.9-1 .387-.28.847-.493 1.38-.64.534-.16 1.12-.24 1.76-.24.534 0 1.074.047 1.62.14a7.022 7.022 0 011.46.4v-.94c0-.92-.26-1.647-.78-2.18-.52-.547-1.24-.82-2.16-.82-.533 0-1.08.107-1.64.32-.56.213-1.126.52-1.7.92l-.48-.9c1.347-.907 2.654-1.36 3.92-1.36 1.307 0 2.334.367 3.08 1.1.747.733 1.12 1.747 1.12 3.04v4.7c0 .373.167.56.5.56V38c-.226.04-.4.06-.52.06-.346 0-.62-.087-.82-.26-.186-.173-.286-.413-.3-.72l-.04-.82a4.708 4.708 0 01-1.82 1.44c-.72.333-1.5.5-2.34.5zm.32-1.04c.707 0 1.354-.133 1.94-.4.6-.267 1.054-.62 1.36-1.06.12-.12.207-.247.26-.38.067-.147.1-.28.1-.4v-1.7a8.274 8.274 0 00-2.9-.54c-.96 0-1.74.2-2.34.6-.6.4-.9.927-.9 1.58 0 .32.06.62.18.9.134.28.307.527.52.74.227.2.494.36.8.48.307.12.634.18.98.18zm8.305 4.04c.107.013.207.02.3.02.107.013.207.02.3.02.24 0 .427-.033.56-.1.147-.067.287-.213.42-.44s.28-.553.44-.98c.173-.427.413-1 .72-1.72l-4.54-10.42h1.4l3.86 9.16 3.58-9.16h1.3l-5.4 13.44a2.34 2.34 0 01-.74 1c-.333.293-.793.44-1.38.44-.133 0-.26-.007-.38-.02-.12 0-.267-.013-.44-.04v-1.2z" fill="#0F2459"/></svg>