<svg width="122" height="69" fill="none" xmlns="http://www.w3.org/2000/svg"><path d="M24.602 61.228c3.39-.909 6.537-5.044 8.792-11.58 3.084-2.287 4.507-4.625 5.694-7.614l.056-.139c.077-.176.057-.481-.184-.572l-.14-.056c-.102-.034-.181.018-.293.296l-.056.14c-.782 1.948-2.383 4.086-4.356 5.764.904-2.883 1.666-5.603 2.08-7.422.238-.964-.265-1.45-1.336-1.505-.597-.027-1.057-.12-1.346-.043-.29.078-.389.29-.828 1.433-1.373 3.567-2.585 5.538-3.679 6.67.169-1.226.52-2.811.702-4.102.32-2.167-.223-2.922-1.61-3.11-.546-.07-1.004-.04-1.352.052-.232.062-.346.217-.318.551.036.83-.204 2.602-.997 5.206-.985 3.276-.955 4.2-.168 4.704.86.545 1.531.614 2.082.467.347-.093.91-.43 1.581-1.17.307-.361 1.111-1.415 1.98-3.045-.434 1.513-.848 2.866-1.3 4.075-3.73 1.962-6.858 3.732-8.32 5.925-1.193 1.81-.756 3.557.248 4.406.732.642 1.85.995 3.068.669zm-1.035-4.444c.945-1.34 2.148-2.532 5.187-4.402-1.784 4.236-3.728 6.372-5.822 6.902-.208-.66-.09-1.498.635-2.5zm19.237-9.596c2.898-.776 5.974-4.365 7.011-8.028l.049-.168c.061-.234.051-.387-.206-.535l-.11-.064c-.11-.064-.16-.02-.294.296l-.055.14c-1.341 3.34-3.712 5.621-6.03 6.243a4.126 4.126 0 01-1.264.152 4.68 4.68 0 01-.229-1.088c1.786-1.1 3.273-2.275 4.166-3.228 1.544-1.656 1.912-2.718 1.726-3.413-.179-.667-.695-1.087-1.48-1.467-1.138-1-1.816-1.097-2.599-.888-1.97.528-4.344 3.028-5.392 5.607-.796 2.014-.728 3.89-.03 4.76.707.897 1.825 1.592 2.81 1.794.563.128 1.174.089 1.927-.113zm1.8-7.19c-.547.736-1.644 1.744-2.78 2.607.45-2.263 2.048-4.648 3.728-5.564.283.825.08 1.687-.947 2.956zm8.527 3.988c.718-.565 1.52-1.743 2.344-3.423.182 1.721.962 2.662 2.266 2.312 3.013-.807 5.265-5.386 5.842-7.404l.048-.168c.062-.234.052-.387-.205-.535l-.11-.064c-.11-.064-.16-.02-.294.296l-.056.14c-1.242 3.127-2.364 4.39-3.605 4.972.013-1.805.445-3.784 1.218-5.42.141-.286.063-.576-.062-.698-.51-.392-1.72-.968-2.385-1.131a1.157 1.157 0 00-.87.109c-.635-.513-1.544-.891-2.286-.879-.676.026-1.182.224-1.766.598-1.828 1.173-3.426 3.092-4.388 5.182-1.166 2.487-.948 4.23.014 5.152.503.486.952.77 1.617.934 1.394.682 2.04.54 2.678.027zm-.881-1.782c-.648-2.187 1.38-6.21 4.346-8.122-.32.893-.657 2.07-.914 3.196-.902 2.198-2.125 3.892-3.432 4.926zm13.15-1.412c.32-.086.518-.387 1.211-2.437 1.649-4.976 4.233-9.24 6.67-11.85.072-.081.114-.154.099-.212-.016-.058-.22-.128-.33-.191-.25-.12-.347-.25-.579-.187-.232.062-.599.316-1.15.805-1.142.958-2.348 2.368-3.596 4.318a4.249 4.249 0 00-.12-1.148c-.11-.406-.319-.722-.72-.832-.469-.123-.824-.059-1.363-.1-.19-.012-.422.05-.454.276-.21.957-1.379 4.127-2.113 5.908-.944 2.272-1.13 3.781-.904 4.622.256.956 1.079 1.015 2.01 1.014.874.014 1.137.068 1.34.014zM77.18 18.193c-.93 3.604-2.486 9.27-4.483 14.68-.118.374.138.399.275.331.469-.219 1.267-.37 1.852-.62.686-.34 1.367-1.392 1.9-2.529 1.38-3.196 3.166-8.24 3.62-9.79.331-1.083.227-2.049-.536-2.465-1.05-.557-1.762-.895-2.11-.802-.231.063-.293.296-.518 1.195zm-6.142 20.312c-.089.365.018.648.455.655.531.013 1.063.026 1.816-.176.203-.055.369-.13.496-.35.36-.625.66-1.482.888-2.133.23-.652-.128-1.177-.654-1.285-.431-.102-.905-.13-1.313-.145-.502-.02-.703.157-.828.502-.264.754-.6 1.93-.86 2.932z" fill="#F3BC10"/><path d="M53.62 53.58h1.34L50.48 64h-1.12l-2.24-5.32L44.9 64h-1.12L39.3 53.58h1.32l3.8 9.02 1.98-4.76-1.78-4.24h1.14l1.36 3.4 1.36-3.4h1.16l-1.78 4.24 1.98 4.76 3.78-9.02zm5.516 10.62c-.494 0-.954-.08-1.38-.24a3.775 3.775 0 01-1.1-.7 3.227 3.227 0 01-.72-1.02c-.174-.4-.26-.827-.26-1.28 0-.453.106-.873.32-1.26.213-.387.513-.72.9-1a4.25 4.25 0 011.38-.64c.533-.16 1.12-.24 1.76-.24.533 0 1.073.047 1.62.14a7.014 7.014 0 011.46.4v-.94c0-.92-.26-1.647-.78-2.18-.52-.547-1.24-.82-2.16-.82-.534 0-1.08.107-1.64.32a7.91 7.91 0 00-1.7.92l-.48-.9c1.346-.907 2.653-1.36 3.92-1.36 1.306 0 2.333.367 3.08 1.1.746.733 1.12 1.747 1.12 3.04v4.7c0 .373.166.56.5.56V64c-.227.04-.4.06-.52.06-.347 0-.62-.087-.82-.26-.187-.173-.287-.413-.3-.72l-.04-.82a4.71 4.71 0 01-1.82 1.44c-.72.333-1.5.5-2.34.5zm.32-1.04c.706 0 1.353-.133 1.94-.4.6-.267 1.053-.62 1.36-1.06.12-.12.206-.247.26-.38.066-.147.1-.28.1-.4v-1.7a8.262 8.262 0 00-2.9-.54c-.96 0-1.74.2-2.34.6-.6.4-.9.927-.9 1.58 0 .32.06.62.18.9.133.28.306.527.52.74.226.2.493.36.8.48.306.12.633.18.98.18zm13.158-8.38c-.92.027-1.72.28-2.4.76-.68.48-1.16 1.14-1.44 1.98V64h-1.36V53.58h1.28v2.5c.387-.8.907-1.427 1.56-1.88.653-.453 1.353-.68 2.1-.68.107 0 .193.007.26.02v1.24zm7.012 0c-.92.027-1.72.28-2.4.76-.68.48-1.16 1.14-1.44 1.98V64h-1.36V53.58h1.28v2.5c.386-.8.906-1.427 1.56-1.88.653-.453 1.353-.68 2.1-.68.106 0 .193.007.26.02v1.24zm4.295 9.42c-.494 0-.954-.08-1.38-.24a3.773 3.773 0 01-1.1-.7 3.224 3.224 0 01-.72-1.02c-.174-.4-.26-.827-.26-1.28 0-.453.106-.873.32-1.26.213-.387.513-.72.9-1 .386-.28.846-.493 1.38-.64.533-.16 1.12-.24 1.76-.24.533 0 1.073.047 1.62.14a7.017 7.017 0 011.46.4v-.94c0-.92-.26-1.647-.78-2.18-.52-.547-1.24-.82-2.16-.82-.534 0-1.08.107-1.64.32-.56.213-1.127.52-1.7.92l-.48-.9c1.346-.907 2.653-1.36 3.92-1.36 1.306 0 2.333.367 3.08 1.1.746.733 1.12 1.747 1.12 3.04v4.7c0 .373.166.56.5.56V64c-.227.04-.4.06-.52.06-.347 0-.62-.087-.82-.26-.187-.173-.287-.413-.3-.72l-.04-.82a4.71 4.71 0 01-1.82 1.44c-.72.333-1.5.5-2.34.5zm.32-1.04c.706 0 1.353-.133 1.94-.4.6-.267 1.053-.62 1.36-1.06.12-.12.206-.247.26-.38a.98.98 0 00.1-.4v-1.7a8.268 8.268 0 00-2.9-.54c-.96 0-1.74.2-2.34.6-.6.4-.9.927-.9 1.58 0 .32.06.62.18.9.133.28.306.527.52.74.226.2.493.36.8.48.306.12.633.18.98.18zm16.718.84h-1.36v-5.82c0-1.24-.186-2.14-.56-2.7-.36-.56-.92-.84-1.68-.84-.4 0-.8.073-1.2.22-.4.147-.773.353-1.12.62a4.767 4.767 0 00-.9.96 3.61 3.61 0 00-.58 1.18V64H92.2V53.58h1.24v2.36a4.916 4.916 0 011.82-1.84 5.07 5.07 0 012.6-.7c.574 0 1.06.107 1.46.32.4.213.72.513.96.9s.414.86.52 1.42c.107.56.16 1.18.16 1.86V64zm7.803-.5c-.08.04-.2.093-.36.16-.147.067-.32.133-.52.2s-.427.127-.68.18c-.254.053-.52.08-.8.08-.294 0-.574-.04-.84-.12-.267-.08-.5-.2-.7-.36a1.926 1.926 0 01-.66-1.52v-7.46h-1.44v-1.08h1.44v-3.52h1.36v3.52h2.4v1.08h-2.4v7.08c.026.387.16.673.4.86.253.173.54.26.86.26.386 0 .726-.06 1.02-.18.293-.133.48-.227.56-.28l.36 1.1zm2.299 3.7c.107.013.207.02.3.02.107.013.207.02.3.02.24 0 .427-.033.56-.1.147-.067.287-.213.42-.44s.28-.553.44-.98c.173-.427.413-1 .72-1.72l-4.54-10.42h1.4l3.86 9.16 3.58-9.16h1.3l-5.4 13.44c-.147.387-.393.72-.74 1-.333.293-.793.44-1.38.44-.133 0-.26-.007-.38-.02-.12 0-.267-.013-.44-.04v-1.2z" fill="#D59A0A"/><path d="M15.78 35c.75 0 1.08-.33 1.08-1.08v-3.63c0-.75-.33-1.08-1.08-1.08H12.9V14.48c0-.75-.33-1.08-1.08-1.08h-8.7c-.75 0-1.08.33-1.08 1.08v3.63c0 .75.33 1.08 1.08 1.08h2.76v10.02H2.52c-.75 0-1.08.33-1.08 1.08v3.63c0 .75.33 1.08 1.08 1.08h13.26zm22.308-5.67V19.1c0-3.66-1.77-6.15-9.15-6.15-7.38 0-9.18 2.49-9.18 6.15v10.23c0 3.66 1.8 6.12 9.18 6.12s9.15-2.46 9.15-6.12zm-11.55-1.08v-8.07c0-.78.36-1.38 2.4-1.38 2.07 0 2.4.6 2.4 1.38v8.07c0 .81-.33 1.41-2.4 1.41-2.04 0-2.4-.6-2.4-1.41z" fill="#EBAE16"/></svg>